<svg xmlns="http://www.w3.org/2000/svg" width="19.78" height="19.55" viewBox="0 0 19.78 19.55">
  <g id="Group_1804" data-name="Group 1804" transform="translate(15485.376 -2485.133)">
    <path id="Path_1953" data-name="Path 1953" d="M273.55,52.417h-2.6a3.246,3.246,0,0,0-3.242,3.242v3.949A1.893,1.893,0,0,0,269.6,61.5h3.949a3.246,3.246,0,0,0,3.242-3.242v-2.6A3.246,3.246,0,0,0,273.55,52.417Zm2.541,5.84A2.544,2.544,0,0,1,273.55,60.8H269.6a1.191,1.191,0,0,1-1.19-1.19V55.659a2.544,2.544,0,0,1,2.541-2.541h2.6a2.544,2.544,0,0,1,2.541,2.541Z" transform="translate(-15742.657 2432.966)" fill="#0056a2" stroke="#0056a2" stroke-width="0.5"/>
    <path id="Path_1963" data-name="Path 1963" d="M270.952,61.5h2.6a3.246,3.246,0,0,0,3.242-3.242V54.308a1.893,1.893,0,0,0-1.891-1.891h-3.949a3.246,3.246,0,0,0-3.242,3.242v2.6A3.246,3.246,0,0,0,270.952,61.5Zm-2.541-5.84a2.544,2.544,0,0,1,2.541-2.541H274.9a1.191,1.191,0,0,1,1.19,1.19v3.949A2.544,2.544,0,0,1,273.55,60.8h-2.6a2.544,2.544,0,0,1-2.541-2.541Z" transform="translate(-15752.836 2442.934)" fill="#0056a2" stroke="#0056a2" stroke-width="0.5"/>
    <path id="Path_1961" data-name="Path 1961" d="M273.55,61.5h-2.6a3.246,3.246,0,0,1-3.242-3.242V54.308a1.893,1.893,0,0,1,1.891-1.891h3.949a3.246,3.246,0,0,1,3.242,3.242v2.6A3.246,3.246,0,0,1,273.55,61.5Zm2.542-5.84a2.544,2.544,0,0,0-2.542-2.541H269.6a1.191,1.191,0,0,0-1.19,1.19v3.949a2.544,2.544,0,0,0,2.541,2.541h2.6a2.544,2.544,0,0,0,2.542-2.541Z" transform="translate(-15742.638 2442.914)" fill="#0056a2" stroke="#0056a2" stroke-width="0.5"/>
    <path id="Path_1962" data-name="Path 1962" d="M270.952,52.417h2.6a3.246,3.246,0,0,1,3.242,3.242v3.949A1.893,1.893,0,0,1,274.9,61.5h-3.949a3.246,3.246,0,0,1-3.242-3.242v-2.6A3.246,3.246,0,0,1,270.952,52.417Zm-2.541,5.84a2.544,2.544,0,0,0,2.541,2.541H274.9a1.191,1.191,0,0,0,1.19-1.19V55.659a2.544,2.544,0,0,0-2.541-2.541h-2.6a2.544,2.544,0,0,0-2.541,2.541Z" transform="translate(-15752.836 2432.966)" fill="#0056a2" stroke="#0056a2" stroke-width="0.5"/>
  </g>
</svg>
