<svg xmlns="http://www.w3.org/2000/svg" width="19.748" height="16.944" viewBox="0 0 19.748 16.944">
  <g id="private" transform="translate(0 -33.926)">
    <g id="Group_1840" data-name="Group 1840" transform="translate(0 33.926)">
      <path id="Path_2037" data-name="Path 2037" d="M19.613,41.984a18.725,18.725,0,0,0-4.265-4.062l2.783-2.783a.705.705,0,1,0-.98-1.015l-.017.017-3.04,3.038a9.12,9.12,0,0,0-4.219-1.128c-5.36,0-9.563,5.69-9.739,5.933a.705.705,0,0,0,0,.829A18.725,18.725,0,0,0,4.4,46.875L1.618,49.658a.705.705,0,0,0,.98,1.015l.017-.017,3.04-3.038a9.12,9.12,0,0,0,4.219,1.128c5.36,0,9.563-5.69,9.739-5.933A.705.705,0,0,0,19.613,41.984ZM5.426,45.851A17.561,17.561,0,0,1,1.6,42.4c1.038-1.258,4.405-4.937,8.27-4.937a7.465,7.465,0,0,1,3.166.776l-1.224,1.224a3.521,3.521,0,0,0-4.88,4.88Zm6.352-4.359a2.081,2.081,0,0,1,.212.906,2.116,2.116,0,0,1-2.116,2.116,2.081,2.081,0,0,1-.906-.212ZM7.97,43.3a2.081,2.081,0,0,1-.212-.906,2.116,2.116,0,0,1,2.116-2.116,2.081,2.081,0,0,1,.906.212Zm1.9,4.031a7.466,7.466,0,0,1-3.166-.776l1.224-1.224a3.521,3.521,0,0,0,4.88-4.88l1.509-1.509A17.562,17.562,0,0,1,18.144,42.4C17.106,43.656,13.739,47.335,9.874,47.335Z" transform="translate(0 -33.926)"/>
    </g>
  </g>
</svg>
