<svg xmlns="http://www.w3.org/2000/svg" width="21.055" height="13.42" viewBox="0 0 21.055 13.42">
  <g id="view" transform="translate(0 -92.835)">
    <g id="Group_1836" data-name="Group 1836" transform="translate(0 92.835)">
      <g id="Group_1835" data-name="Group 1835" transform="translate(0 0)">
        <path id="Path_2035" data-name="Path 2035" d="M20.921,99.135c-.188-.257-4.67-6.3-10.394-6.3S.322,98.878.134,99.135a.7.7,0,0,0,0,.819c.188.257,4.67,6.3,10.394,6.3s10.206-6.043,10.394-6.3A.694.694,0,0,0,20.921,99.135Zm-10.394,5.731c-4.216,0-7.868-4.011-8.949-5.322,1.08-1.312,4.724-5.321,8.949-5.321s7.868,4.01,8.949,5.322C18.4,100.858,14.753,104.866,10.527,104.866Z" transform="translate(0 -92.835)"/>
      </g>
    </g>
    <g id="Group_1838" data-name="Group 1838" transform="translate(6.363 95.38)">
      <g id="Group_1837" data-name="Group 1837">
        <path id="Path_2036" data-name="Path 2036" d="M158.887,154.725a4.165,4.165,0,1,0,4.165,4.165A4.17,4.17,0,0,0,158.887,154.725Zm0,6.941a2.776,2.776,0,1,1,2.776-2.776A2.78,2.78,0,0,1,158.887,161.666Z" transform="translate(-154.722 -154.725)"/>
      </g>
    </g>
  </g>
</svg>
